<?xml version="1.0" encoding="UTF-8"?>
<svg xmlns="http://www.w3.org/2000/svg" id="Icons" viewBox="0 0 74 74" width="512" height="512"><path d="M34.64,35.64a1,1,0,0,1-.707-.293l-2.05-2.05A1,1,0,1,1,33.3,31.883l2.05,2.05a1,1,0,0,1-.707,1.707Z"/><path d="M71,72H3a1,1,0,0,1-1-1V3a1,1,0,0,1,1.707-.707l24.64,24.64a1,1,0,0,1-1.414,1.414L4,5.414V70H68.586L45.933,47.347a1,1,0,0,1,1.414-1.414l24.36,24.36A1,1,0,0,1,71,72Z"/><path d="M41.69,42.69a1,1,0,0,1-.707-.293l-2.1-2.1A1,1,0,0,1,40.3,38.883l2.1,2.1a1,1,0,0,1-.707,1.707Z"/><path d="M46.857,62H13a1,1,0,0,1-1-1V27.142a1,1,0,0,1,1.707-.707L47.564,60.293A1,1,0,0,1,46.857,62ZM14,60H44.443L14,29.556Z"/><path d="M57.375,72a1,1,0,0,1-1-1V68.375a1,1,0,0,1,2,0V71A1,1,0,0,1,57.375,72Z"/><path d="M50,72a1,1,0,0,1-1-1V66.792a1,1,0,0,1,2,0V71A1,1,0,0,1,50,72Z"/><path d="M42.625,72a1,1,0,0,1-1-1V68.375a1,1,0,0,1,2,0V71A1,1,0,0,1,42.625,72Z"/><path d="M35.25,72a1,1,0,0,1-1-1V66.792a1,1,0,0,1,2,0V71A1,1,0,0,1,35.25,72Z"/><path d="M27.875,72a1,1,0,0,1-1-1V68.375a1,1,0,0,1,2,0V71A1,1,0,0,1,27.875,72Z"/><path d="M20.5,72a1,1,0,0,1-1-1V66.792a1,1,0,0,1,2,0V71A1,1,0,0,1,20.5,72Z"/><path d="M13.125,72a1,1,0,0,1-1-1V68.375a1,1,0,0,1,2,0V71A1,1,0,0,1,13.125,72Z"/><path d="M5.624,62.125H3a1,1,0,1,1,0-2H5.624a1,1,0,0,1,0,2Z"/><path d="M7.207,54.75H3a1,1,0,0,1,0-2H7.207a1,1,0,1,1,0,2Z"/><path d="M5.624,47.375H3a1,1,0,0,1,0-2H5.624a1,1,0,1,1,0,2Z"/><path d="M7.207,40H3a1,1,0,0,1,0-2H7.207a1,1,0,1,1,0,2Z"/><path d="M5.624,32.625H3a1,1,0,0,1,0-2H5.624a1,1,0,1,1,0,2Z"/><path d="M7.207,25.25H3a1,1,0,1,1,0-2H7.207a1,1,0,1,1,0,2Z"/><path d="M5.624,17.875H3a1,1,0,1,1,0-2H5.624a1,1,0,0,1,0,2Z"/></svg>
